Coordinates
version=1
nRows=8
nColumns=63
inDegrees=yes

Units are S.I. units (second, meters, Newtons, ...)
If the header above contains a line with 'inDegrees', this indicates whether rotational values are in degrees (yes) or radians (no).

endheader
time	pelvis_tilt	pelvis_list	pelvis_rotation	pelvis_tx	pelvis_ty	pelvis_tz	hip_flexion_r	hip_adduction_r	hip_rotation_r	knee_angle_r	knee_angle_r_beta	ankle_angle_r	subtalar_angle_r	mtp_angle_r	hip_flexion_l	hip_adduction_l	hip_rotation_l	knee_angle_l	knee_angle_l_beta	ankle_angle_l	subtalar_angle_l	mtp_angle_l	L5_S1_Flex_Ext	L5_S1_Lat_Bending	L5_S1_axial_rotation	L4_L5_Flex_Ext	L4_L5_Lat_Bending	L4_L5_axial_rotation	L3_L4_Flex_Ext	L3_L4_Lat_Bending	L3_L4_axial_rotation	L2_L3_Flex_Ext	L2_L3_Lat_Bending	L2_L3_axial_rotation	L1_L2_Flex_Ext	L1_L2_Lat_Bending	L1_L2_axial_rotation	L1_T12_Flex_Ext	L1_T12_Lat_Bending	L1_T12_axial_rotation	Abs_r3	Abs_r2	Abs_r1	Abs_t1	Abs_t2	neck_flexion	neck_bending	neck_rotation	arm_flex_r	arm_add_r	arm_rot_r	elbow_flex_r	pro_sup_r	wrist_flex_r	wrist_dev_r	arm_flex_l	arm_add_l	arm_rot_l	elbow_flex_l	pro_sup_l	wrist_flex_l	wrist_dev_l
1.928571	-2.448748	-6.160606	92.542313	0.194670	0.771142	0.800816	9.271203	-3.609718	-9.873661	13.578975	0.236998	31.737746	8.904948	0.000000	6.614323	3.043164	13.124089	4.553562	0.079475	25.990193	-10.860369	0.000000	0.321965	-0.618971	3.450735	0.597921	-0.823231	3.666406	0.528956	-1.504965	3.666406	0.367974	-1.504965	3.019393	0.298977	-1.262205	2.803723	0.183971	-0.958785	2.588052	2.299763	-7.001919	19.191955	0.000000	0.000000	27.821767	-2.013131	-12.025140	61.419325	-8.677608	92.421530	70.476975	74.134358	18.919000	7.987319	38.486390	-29.765606	53.319507	68.565212	75.717656	0.548851	2.575558
1.946429	-2.151969	-6.408272	93.381694	0.191697	0.769873	0.799726	9.188527	-3.581217	-11.156122	13.522272	0.236008	31.632882	9.023872	0.000000	6.947705	3.016092	14.888041	4.820375	0.084131	26.088178	-11.972428	0.000000	0.348261	-0.539008	3.104670	0.646755	-0.716881	3.298712	0.572158	-1.310545	3.298712	0.398027	-1.310545	2.716586	0.323395	-1.099145	2.522544	0.198996	-0.834924	2.328503	2.487593	-6.097368	17.267243	0.000000	0.000000	28.339813	-1.819073	-9.451136	58.488174	-7.899035	93.587791	66.164133	70.075904	19.966042	5.771395	37.838024	-29.128535	51.628402	67.479141	76.581594	-0.729025	1.310847
1.964286	-1.852337	-6.600568	94.393869	0.188772	0.768803	0.798561	8.992877	-3.526040	-12.453976	13.371913	0.233384	31.527161	9.045530	0.000000	7.253131	2.990699	16.756974	5.116540	0.089300	26.253750	-12.999320	0.000000	0.371107	-0.461283	2.747327	0.689183	-0.613507	2.919035	0.609691	-1.121565	2.919035	0.424138	-1.121565	2.403911	0.344610	-0.940649	2.232203	0.212050	-0.714528	2.060496	2.650779	-5.218131	15.279811	0.000000	0.000000	28.586028	-1.699071	-6.989299	55.663281	-6.849078	94.652228	62.065366	63.816241	18.972168	3.141038	37.190857	-28.232772	49.891578	66.278135	77.868516	-2.238119	0.064279
1.982143	-1.561152	-6.727525	95.409993	0.186106	0.767941	0.797344	8.720133	-3.444727	-13.670660	13.159684	0.229680	31.452676	9.090539	0.000000	7.500850	2.961314	18.493213	5.404768	0.094331	26.499771	-13.855161	0.000000	0.390453	-0.387818	2.412399	0.725111	-0.515798	2.563174	0.641476	-0.942941	2.563174	0.446249	-0.942941	2.110849	0.362575	-0.790839	1.960074	0.223105	-0.600730	1.809300	2.788969	-4.387077	13.417041	0.000000	0.000000	28.600423	-1.653421	-4.727475	53.150341	-5.702840	95.708620	58.332714	55.056597	15.822450	0.526612	36.641598	-27.084778	48.190031	64.962973	79.563612	-3.700192	-0.959909
2.000000	-1.277363	-6.789652	96.480685	0.183604	0.767325	0.796155	8.363942	-3.343131	-14.904126	12.872723	0.224671	31.411450	9.223787	0.000000	7.721365	2.920794	19.844715	5.726098	0.099939	26.923370	-14.099454	0.000000	0.404788	-0.319568	2.087347	0.751731	-0.425025	2.217806	0.665026	-0.776997	2.217806	0.462632	-0.776997	1.826429	0.375886	-0.651662	1.695970	0.231296	-0.495010	1.565510	2.891357	-3.615014	11.609199	0.000000	0.000000	28.459919	-1.625886	-2.672094	51.059071	-4.659260	96.707925	54.868723	46.592016	11.911741	0.303677	36.253719	-25.732017	46.607618	63.524676	81.384043	-4.859140	-1.654909
2.017857	-1.003124	-6.782721	97.500823	0.181369	0.766957	0.795001	7.951544	-3.213309	-16.018782	12.538587	0.218840	31.402681	9.403072	0.000000	7.885690	2.863971	20.882333	6.037691	0.105378	27.435277	-14.006214	0.000000	0.412699	-0.257591	1.785363	0.766423	-0.342596	1.896948	0.678023	-0.626306	1.896948	0.471674	-0.626306	1.562193	0.383232	-0.525279	1.450608	0.235816	-0.399008	1.339022	2.947867	-2.913917	9.929655	0.000000	0.000000	28.243518	-1.619664	-0.956887	49.318835	-3.783594	97.315036	51.515939	39.680319	10.745724	1.132595	36.059672	-24.268258	45.215431	62.010340	83.639056	-5.567368	-2.190495
2.035714	-0.748482	-6.730124	98.474462	0.179373	0.766791	0.793879	7.505984	-3.064018	-17.021270	12.159973	0.212232	31.406856	9.600890	0.000000	8.014443	2.800565	21.580052	6.336649	0.110595	28.013998	-13.532019	0.000000	0.415470	-0.203766	1.507036	0.771570	-0.271009	1.601226	0.682576	-0.495437	1.601226	0.474841	-0.495437	1.318657	0.385806	-0.415520	1.224467	0.237400	-0.315633	1.130277	2.967662	-2.305041	8.381684	0.000000	0.000000	28.055990	-1.596198	0.429572	47.953902	-3.070013	97.851215	48.498649	32.674094	10.202577	2.339530	36.103812	-22.773203	44.193940	60.504443	85.325723	-5.819714	-2.298637
2.053571	-0.518332	-6.658702	99.391725	0.177588	0.766752	0.792787	7.073500	-2.903391	-17.897148	11.782213	0.205638	31.421287	9.781028	0.000000	8.138833	2.732420	21.905556	6.638491	0.115864	28.657187	-12.650112	0.000000	0.415941	-0.158834	1.255520	0.772444	-0.211249	1.333990	0.683350	-0.386188	1.333990	0.475379	-0.386188	1.098580	0.386243	-0.323894	1.020110	0.237669	-0.246033	0.941640	2.971027	-1.796758	6.982826	0.000000	0.000000	27.952572	-1.552018	1.463930	46.936667	-2.561042	98.305707	45.870590	26.150805	9.939721	3.670378	36.379736	-21.304274	43.621885	59.053425	86.243654	-5.589821	-2.058172
